<svg width="1200" height="720" viewBox="0 0 1200 720" fill="none" xmlns="http://www.w3.org/2000/svg">
  <rect width="1200" height="720" rx="48" fill="#F7F1E7"/>
  <rect x="48" y="48" width="1104" height="624" rx="36" fill="url(#paint0_linear_11_7)"/>
  <rect x="112" y="112" width="976" height="72" rx="20" fill="white" fill-opacity="0.72"/>
  <rect x="112" y="224" width="460" height="312" rx="28" fill="white" fill-opacity="0.58"/>
  <rect x="612" y="224" width="476" height="128" rx="28" fill="white" fill-opacity="0.5"/>
  <rect x="612" y="384" width="476" height="152" rx="28" fill="white" fill-opacity="0.4"/>
  <path d="M150 148H420" stroke="#A66633" stroke-width="18" stroke-linecap="round"/>
  <path d="M640 270H988" stroke="#172033" stroke-opacity="0.85" stroke-width="18" stroke-linecap="round"/>
  <path d="M640 318H938" stroke="#172033" stroke-opacity="0.5" stroke-width="12" stroke-linecap="round"/>
  <path d="M640 432H996" stroke="#172033" stroke-opacity="0.85" stroke-width="18" stroke-linecap="round"/>
  <path d="M640 480H948" stroke="#172033" stroke-opacity="0.5" stroke-width="12" stroke-linecap="round"/>
  <path d="M640 516H900" stroke="#172033" stroke-opacity="0.5" stroke-width="12" stroke-linecap="round"/>
  <circle cx="960" cy="126" r="18" fill="#172033" fill-opacity="0.14"/>
  <circle cx="1010" cy="126" r="18" fill="#172033" fill-opacity="0.14"/>
  <circle cx="1060" cy="126" r="18" fill="#172033" fill-opacity="0.14"/>
  <defs>
    <linearGradient id="paint0_linear_11_7" x1="0" y1="0" x2="1200" y2="720" gradientUnits="userSpaceOnUse">
      <stop stop-color="#F3E2C7"/>
      <stop offset="1" stop-color="#FDFBF7"/>
    </linearGradient>
  </defs>
</svg>
