<?xml version="1.0" encoding="UTF-8"?>
<svg version="1.1" xmlns="http://www.w3.org/2000/svg" width="156" height="156">
<path d="M0 0 C51.48 0 102.96 0 156 0 C156 51.48 156 102.96 156 156 C104.52 156 53.04 156 0 156 C0 104.52 0 53.04 0 0 Z " fill="#1D2B42" transform="translate(0,0)"/>
<path d="M0 0 C51.48 0 102.96 0 156 0 C156 51.48 156 102.96 156 156 C104.52 156 53.04 156 0 156 C0 104.52 0 53.04 0 0 Z M25.65234375 36.5390625 C14.28577283 49.92399648 9.51387774 67.50921463 10.77246094 84.86816406 C12.77238235 103.60562517 22.00005656 120.70685263 36.3046875 132.93359375 C52.22043649 145.13566798 69.49709206 148.45675102 89.09765625 146.7265625 C106.63864265 143.98820527 122.09939933 134.07703876 133.1875 120.3125 C143.63930035 105.30099072 149.44982585 87.35228585 146.70263672 69.01513672 C143.44162693 50.86671753 134.29837454 34.83490289 119.625 23.5625 C113.75570852 19.59947413 107.57204893 16.61092538 101 14 C99.74703125 13.48759766 99.74703125 13.48759766 98.46875 12.96484375 C70.94629167 3.60198214 44.11924662 16.5665386 25.65234375 36.5390625 Z " fill="#1C2A41" transform="translate(0,0)"/>
<path d="M0 0 C14.85473908 12.59528039 23.42301911 29.57818766 25.05859375 48.89453125 C25.68095627 66.90532528 19.64338504 85.3118936 7.4375 98.75 C-5.45730416 112.20719437 -21.55832897 120.75495379 -40.29296875 121.453125 C-60.87099892 121.84398712 -77.36698651 115.56043511 -92.359375 101.234375 C-100.20771261 93.02099843 -106.5263594 82.30839042 -109.25 71.25 C-109.45238281 70.53328125 -109.65476562 69.8165625 -109.86328125 69.078125 C-114.05213991 52.09472526 -111.1532091 32.92524537 -102.171875 17.90234375 C-91.07010054 2.58099241 -75.64727409 -10.26907449 -56.76953125 -14.3125 C-35.44742232 -16.96297303 -17.41769359 -13.1170285 0 0 Z M-89.25 6.25 C-89.81460938 6.87261719 -90.37921875 7.49523437 -90.9609375 8.13671875 C-100.6743774 19.55103526 -101.4378115 32.33643362 -100.51611328 46.77294922 C-99.92809561 52.24636873 -98.0294571 56.56347014 -95.25 61.25 C-94.66863281 62.27738281 -94.08726563 63.30476563 -93.48828125 64.36328125 C-88.94000305 72.06675447 -83.78657752 79.34029324 -78.49804688 86.54785156 C-77.27804702 88.21174808 -76.06850827 89.88288588 -74.859375 91.5546875 C-72.70411662 94.49434263 -70.50286186 97.38466809 -68.25 100.25 C-67.48042969 101.24966797 -67.48042969 101.24966797 -66.6953125 102.26953125 C-59.69814119 110.29996361 -47.43098769 115.65087111 -36.97265625 116.5234375 C-23.40545749 116.89990193 -11.66504824 113.29279526 -1.25 104.25 C9.5250003 93.99302856 15.65120306 81.79306133 16.1875 66.8125 C15.79378346 53.97128353 9.86380819 44.46726802 2.75 34.25 C2.26901855 33.55116699 1.78803711 32.85233398 1.29248047 32.13232422 C-16.11065075 5.47718646 -16.11065075 5.47718646 -43.1105957 -9.3684082 C-60.92545048 -12.54592937 -77.15118486 -7.48379016 -89.25 6.25 Z " fill="#E5E1DF" transform="translate(122.25,25.75)"/>
<path d="M0 0 C1.58025005 0.21192095 3.16398461 0.39923371 4.75 0.5625 C5.54921875 0.64628906 6.3484375 0.73007813 7.171875 0.81640625 C8.07679687 0.90728516 8.07679687 0.90728516 9 1 C9 1.33 9 1.66 9 2 C8.11699219 2.02578125 7.23398438 2.0515625 6.32421875 2.078125 C-5.74518115 2.64853703 -14.25323916 5.19360826 -23.90625 12.51171875 C-26 14 -26 14 -29 15 C-29.71499533 16.30805348 -30.37686112 17.64577692 -31 19 C-31.93988976 20.1815757 -32.89952603 21.34762661 -33.875 22.5 C-42.19564941 33.7165617 -42.50404681 47.54246225 -41 61 C-39.27953826 67.86774481 -35.92908027 73.65861579 -31.8203125 79.37890625 C-31.41425781 80.18134766 -31.41425781 80.18134766 -31 81 C-31.33 81.99 -31.66 82.98 -32 84 C-32.99 84 -33.98 84 -35 84 C-35.66 82.35 -36.32 80.7 -37 79 C-39.002501 81.002501 -39.93215371 82.406659 -41 85 C-41 86.32 -41 87.64 -41 89 C-41.33 88.34 -41.66 87.68 -42 87 C-42.495 87.495 -42.495 87.495 -43 88 C-42.96777152 90.03039402 -42.93188381 92.06128092 -42.83984375 94.08984375 C-43 96 -43 96 -45 98 C-53.84849804 80.86259273 -55.69016262 62.72500707 -50.18579102 44.32055664 C-44.54135286 26.85586602 -31.86068066 12.49038258 -15.53271484 4.08154297 C-4.72344381 -1.33830908 -4.72344381 -1.33830908 0 0 Z " fill="#E1DDDD" transform="translate(64,14)"/>
<path d="M0 0 C1.32 0 2.64 0 4 0 C3.38584886 2.81020674 2.52527431 5.14519583 1.1875 7.6875 C-1.53755601 12.9988819 -4.02831266 18.40883377 -6.125 24 C-7 26 -7 26 -9 27 C-10.02445378 28.96695125 -10.97037519 30.97514032 -11.875 33 C-12.4009375 34.16917969 -12.926875 35.33835938 -13.46875 36.54296875 C-13.9740625 37.68378906 -14.479375 38.82460937 -15 40 C-15.63421875 41.41732422 -15.63421875 41.41732422 -16.28125 42.86328125 C-17.19358076 44.90625049 -18.10014726 46.95151169 -19 49 C-19.99 49 -20.98 49 -22 49 C-23.6097834 45.66935138 -25.21178237 42.33501393 -26.8125 39 C-27.49022461 37.59814453 -27.49022461 37.59814453 -28.18164062 36.16796875 C-30.73018984 30.84763973 -32.97463963 25.53848546 -35 20 C-35.474375 19.21625 -35.94875 18.4325 -36.4375 17.625 C-39.47633842 12.51975145 -41.68808908 6.79650439 -43 1 C-41.02 1 -39.04 1 -37 1 C-35.20217663 4.85882693 -33.40576231 8.7183058 -31.6105957 12.57836914 C-31.00094741 13.8887663 -30.39092851 15.19899112 -29.78051758 16.5090332 C-28.89825188 18.40269425 -28.01736427 20.2969913 -27.13671875 22.19140625 C-26.60780029 23.32779541 -26.07888184 24.46418457 -25.53393555 25.63500977 C-25.02773682 26.74545654 -24.52153809 27.85590332 -24 29 C-23.57311386 29.92835159 -23.57311386 29.92835159 -23.13760376 30.87545776 C-21.84470571 33.76411488 -21 35.79799932 -21 39 C-18.7792359 36.94597613 -17.34621994 35.0615084 -16.00708008 32.35473633 C-15.64693314 31.63421585 -15.28678619 30.91369537 -14.91572571 30.17134094 C-14.53748154 29.39936874 -14.15923737 28.62739655 -13.76953125 27.83203125 C-13.37424728 27.03721848 -12.97896332 26.2424057 -12.57170105 25.42350769 C-11.31296508 22.88927004 -10.06264736 20.35098366 -8.8125 17.8125 C-7.95953632 16.0915232 -7.10602705 14.37081671 -6.25195312 12.65039062 C-4.16162947 8.43670178 -2.07884509 4.21936289 0 0 Z " fill="#C6CAD1" transform="translate(99,59)"/>
<path d="M0 0 C2.15300694 6.45902081 -2.71095343 15.3006599 -5.578125 21.3046875 C-14.82175162 37.93457651 -29.35984147 50.15889855 -47.42578125 56.1328125 C-54.07430262 57.74589637 -60.56508021 58.1937369 -67.375 58.1875 C-68.11161865 58.18814453 -68.8482373 58.18878906 -69.60717773 58.18945312 C-75.24176136 58.13504257 -80.55105762 57.49946326 -86 56 C-86 55.67 -86 55.34 -86 55 C-84.02090602 54.97313447 -82.04171029 54.95366625 -80.0625 54.9375 C-78.96035156 54.92589844 -77.85820313 54.91429687 -76.72265625 54.90234375 C-74 55 -74 55 -73 56 C-70.32941149 56.14115161 -67.67567762 56.04247107 -65 56 C-65.33 54.68 -65.66 53.36 -66 52 C-64.86304687 52.05800781 -63.72609375 52.11601562 -62.5546875 52.17578125 C-47.71698232 52.7036239 -35.58400828 50.01261237 -24 40 C-14.97673032 31.45415199 -10.79625352 21.95796221 -8 10 C-5.525 9.505 -5.525 9.505 -3 9 C-2.01 6.03 -1.02 3.06 0 0 Z " fill="#D4D6DC" transform="translate(145,89)"/>
<path d="M0 0 C1.58025005 0.21192095 3.16398461 0.39923371 4.75 0.5625 C5.54921875 0.64628906 6.3484375 0.73007813 7.171875 0.81640625 C8.07679687 0.90728516 8.07679687 0.90728516 9 1 C9 1.33 9 1.66 9 2 C8.11699219 2.02578125 7.23398438 2.0515625 6.32421875 2.078125 C-5.74518115 2.64853703 -14.25323916 5.19360826 -23.90625 12.51171875 C-26 14 -26 14 -29 15 C-29.71499533 16.30805348 -30.37686112 17.64577692 -31 19 C-31.93988976 20.1815757 -32.89952603 21.34762661 -33.875 22.5 C-41.3735957 32.49201627 -41.7156929 44.00224018 -42 56 C-42.33 56 -42.66 56 -43 56 C-43.33 52.7 -43.66 49.4 -44 46 C-45.98 46.495 -45.98 46.495 -48 47 C-48 47.66 -48 48.32 -48 49 C-48.66 49 -49.32 49 -50 49 C-50.33 51.31 -50.66 53.62 -51 56 C-51.33 56 -51.66 56 -52 56 C-50.58531058 37.60903752 -40.87602376 24.14840245 -27.78125 11.9296875 C-21.13716278 6.40121194 -8.67498882 -2.4579135 0 0 Z " fill="#D0D4E0" transform="translate(64,14)"/>
<path d="M0 0 C0.66 0.66 1.32 1.32 2 2 C-2.25061356 3.41687119 -4.71851625 2.19320039 -9 1 C-8.34 1.99 -7.68 2.98 -7 4 C-13.81306273 6.35360349 -17.42824992 5.65259731 -24 3 C-29.6620258 1.14697338 -35.09131571 0.45177063 -41 0 C-40.67 -0.99 -40.34 -1.98 -40 -3 C-27.39732258 -6.22272208 -11.90832748 -5.05873136 0 0 Z " fill="#DBDADC" transform="translate(104,15)"/>
<path d="M0 0 C1.2065625 0.0309375 1.2065625 0.0309375 2.4375 0.0625 C2.57027344 1.14789063 2.70304687 2.23328125 2.83984375 3.3515625 C3.01816254 4.79688322 3.19655169 6.24219526 3.375 7.6875 C3.46201172 8.40035156 3.54902344 9.11320312 3.63867188 9.84765625 C4.14532605 13.93841961 4.7264043 18.00092635 5.4375 22.0625 C-0.3125 22.1875 -0.3125 22.1875 -2.5625 21.0625 C-2.8925 22.0525 -3.2225 23.0425 -3.5625 24.0625 C-4.2225 24.0625 -4.8825 24.0625 -5.5625 24.0625 C-7.9967342 19.1940316 -7.03949661 11.98687478 -5.5625 6.875 C-5.0675 5.4828125 -5.0675 5.4828125 -4.5625 4.0625 C-3.9025 4.0625 -3.2425 4.0625 -2.5625 4.0625 C-2.8925 3.0725 -3.2225 2.0825 -3.5625 1.0625 C-2.5625 0.0625 -2.5625 0.0625 0 0 Z " fill="#E8E3E1" transform="translate(18.5625,58.9375)"/>
<path d="M0 0 C1.60463449 0.31008884 3.20869231 0.62316287 4.8125 0.9375 C5.70582031 1.11152344 6.59914063 1.28554688 7.51953125 1.46484375 C11.44258376 2.31123461 13.87198006 3.55623442 17 6 C17.99 6.66 18.98 7.32 20 8 C19.67 8.99 19.34 9.98 19 11 C19.66 10.34 20.32 9.68 21 9 C21.66 9.33 22.32 9.66 23 10 C22.67 11.32 22.34 12.64 22 14 C19.69 14.66 17.38 15.32 15 16 C14.71125 15.030625 14.4225 14.06125 14.125 13.0625 C13.35785318 9.89335797 13.35785318 9.89335797 11 9 C11 7.35 11 5.7 11 4 C9.68 4.33 8.36 4.66 7 5 C7.99 5.33 8.98 5.66 10 6 C9.67 6.66 9.34 7.32 9 8 C8.67 8.99 8.34 9.98 8 11 C7.01 11 6.02 11 5 11 C4.67 10.01 4.34 9.02 4 8 C4.33 7.34 4.66 6.68 5 6 C4.071875 6.20625 3.14375 6.4125 2.1875 6.625 C-1 7 -1 7 -4 5 C-2.68 4.34 -1.36 3.68 0 3 C0 2.01 0 1.02 0 0 Z " fill="#EBE6E4" transform="translate(94,15)"/>
<path d="M0 0 C1.98 0 3.96 0 6 0 C7.34872396 2.88890575 8.67615602 5.78711884 10 8.6875 C10.3815625 9.50412109 10.763125 10.32074219 11.15625 11.16210938 C11.5171875 11.95810547 11.878125 12.75410156 12.25 13.57421875 C12.58515625 14.30213623 12.9203125 15.03005371 13.265625 15.7800293 C14.09774106 18.29546526 14.12950201 20.36746699 14 23 C10.30890943 22.07722736 9.12625034 21.18363685 6.9375 18 C3.99826112 12.30074413 1.42530527 6.26270496 0 0 Z " fill="#D3D3D9" transform="translate(56,60)"/>
<path d="M0 0 C0.309375 0.639375 0.61875 1.27875 0.9375 1.9375 C1.8345163 3.93610821 1.8345163 3.93610821 3 5 C3.54442833 11.85979701 2.80367624 18.08317029 -1 24 C-2.32 24.33 -3.64 24.66 -5 25 C-5.33 18.73 -5.66 12.46 -6 6 C-5.01 6.495 -5.01 6.495 -4 7 C-4 7.66 -4 8.32 -4 9 C-3.01 9 -2.02 9 -1 9 C-1.020625 7.88625 -1.04125 6.7725 -1.0625 5.625 C-1 2 -1 2 0 0 Z " fill="#E7E6E4" transform="translate(143,75)"/>
<path d="M0 0 C1.65 0 3.3 0 5 0 C5 1.65 5 3.3 5 5 C5.99 5.33 6.98 5.66 8 6 C9.37407134 8.85384047 8.95284958 10.1634548 8.0625 13.25 C7.5365625 14.61125 7.5365625 14.61125 7 16 C6.56429687 15.62488281 6.12859375 15.24976563 5.6796875 14.86328125 C2.72239204 12.32205549 -0.24094051 9.79232792 -3.25 7.3125 C-5.27991061 5.60552971 -7.17987498 3.92124308 -9 2 C-6.36 2 -3.72 2 -1 2 C-1 3.65 -1 5.3 -1 7 C-0.34 6.67 0.32 6.34 1 6 C1.33 5.01 1.66 4.02 2 3 C2.66 2.67 3.32 2.34 4 2 C2.68 1.67 1.36 1.34 0 1 C0 0.67 0 0.34 0 0 Z " fill="#DEDDDC" transform="translate(100,19)"/>
<path d="M0 0 C1.31223496 3.93670488 0.24296256 6.12488144 -1 10 C-0.34 10 0.32 10 1 10 C1 15.61 1 21.22 1 27 C0.67 27 0.34 27 0 27 C-0.33 23.7 -0.66 20.4 -1 17 C-2.32 17.33 -3.64 17.66 -5 18 C-5 18.66 -5 19.32 -5 20 C-5.66 20 -6.32 20 -7 20 C-7.33 22.31 -7.66 24.62 -8 27 C-8.33 27 -8.66 27 -9 27 C-8.25194106 17.27523382 -5.23641256 8.22864831 0 0 Z " fill="#CACACF" transform="translate(21,43)"/>
<path d="M0 0 C0.66 0 1.32 0 2 0 C-2.11016498 10.1155727 -15.51986411 15.98867719 -25 20 C-25.66 20 -26.32 20 -27 20 C-27 19.34 -27 18.68 -27 18 C-27.66 17.67 -28.32 17.34 -29 17 C-28.10539062 16.72027344 -27.21078125 16.44054687 -26.2890625 16.15234375 C-15.76410246 12.6627248 -7.77652241 8.01953873 0 0 Z " fill="#D3D9E9" transform="translate(126,124)"/>
<path d="M0 0 C1.32 0.66 2.64 1.32 4 2 C4 1.34 4 0.68 4 0 C6.97 0.495 6.97 0.495 10 1 C10 1.66 10 2.32 10 3 C11.32 3.33 12.64 3.66 14 4 C12.91460937 4.32613281 11.82921875 4.65226563 10.7109375 4.98828125 C9.26553999 5.42940906 7.82023222 5.87083096 6.375 6.3125 C5.66214844 6.52583984 4.94929688 6.73917969 4.21484375 6.95898438 C0.80625999 8.00657663 -2.20319495 9.10346593 -5.3984375 10.73046875 C-6.68621094 11.35888672 -6.68621094 11.35888672 -8 12 C-8.66 11.67 -9.32 11.34 -10 11 C-8.35 10.01 -6.7 9.02 -5 8 C-5.33 7.34 -5.66 6.68 -6 6 C-3.92446352 5.4465236 -2.15634036 5 0 5 C0 3.35 0 1.7 0 0 Z " fill="#161F32" transform="translate(54,8)"/>
<path d="M0 0 C1.32 0 2.64 0 4 0 C3.38584886 2.81020674 2.52527431 5.14519583 1.1875 7.6875 C-1.0549112 12.049113 -3.04348758 16.50418422 -5 21 C-5.33 20.34 -5.66 19.68 -6 19 C-5.67 18.01 -5.34 17.02 -5 16 C-5.66 16 -6.32 16 -7 16 C-5.35433477 10.31497465 -2.70967216 5.23318364 0 0 Z " fill="#CBD1DD" transform="translate(99,59)"/>
<path d="M0 0 C0.33 0.66 0.66 1.32 1 2 C3.02463255 2.65213292 3.02463255 2.65213292 5 3 C5 3.99 5 4.98 5 6 C6.32 5.67 7.64 5.34 9 5 C8.51421457 8.12290635 8.0013988 10.99580359 7 14 C6.01 14 5.02 14 4 14 C-0.59225513 4.58997722 -0.59225513 4.58997722 0 0 Z " fill="#D3D6DB" transform="translate(73,94)"/>
<path d="M0 0 C1.58025005 0.21192095 3.16398461 0.39923371 4.75 0.5625 C5.54921875 0.64628906 6.3484375 0.73007813 7.171875 0.81640625 C8.07679687 0.90728516 8.07679687 0.90728516 9 1 C9 1.33 9 1.66 9 2 C8.11699219 2.02578125 7.23398438 2.0515625 6.32421875 2.078125 C-4.80526716 2.60411574 -13.56142213 5.12710711 -23 11 C-23 10.01 -23 9.02 -23 8 C-20.39704724 6.68504458 -17.79271967 5.37295014 -15.1875 4.0625 C-14.44951172 3.68931641 -13.71152344 3.31613281 -12.95117188 2.93164062 C-12.23896484 2.57392578 -11.52675781 2.21621094 -10.79296875 1.84765625 C-10.1383667 1.51773682 -9.48376465 1.18781738 -8.80932617 0.84790039 C-5.32734903 -0.7838506 -3.6153198 -1.02434061 0 0 Z " fill="#BCC1D0" transform="translate(64,14)"/>
<path d="M0 0 C1.98 0 3.96 0 6 0 C7.36475387 2.72950775 7.06060095 4.96995272 7 8 C7 9.32 7 10.64 7 12 C6.34 12 5.68 12 5 12 C4.16180842 10.37750059 3.3295884 8.75191503 2.5 7.125 C2.0359375 6.22007813 1.571875 5.31515625 1.09375 4.3828125 C0 2 0 2 0 0 Z " fill="#D6D7DE" transform="translate(56,60)"/>
<path d="M0 0 C3.5371438 0.56132934 4.99261679 1.69557747 7.25 4.4375 C8.03117187 5.36369141 8.03117187 5.36369141 8.828125 6.30859375 C10 8 10 8 10 10 C9.01 10.33 8.02 10.66 7 11 C5.82750647 9.54634731 4.66216184 8.08692581 3.5 6.625 C2.52546875 5.40683594 2.52546875 5.40683594 1.53125 4.1640625 C0 2 0 2 0 0 Z " fill="#212838" transform="translate(39,104)"/>
<path d="M0 0 C6.85933285 0.04822027 12.73388963 1.28074456 19 4 C15.62471609 5.12509464 14.39161739 4.75478282 11 4 C9.381374 3.86173037 7.75958568 3.75688451 6.13671875 3.68359375 C4.80737305 3.62075195 4.80737305 3.62075195 3.45117188 3.55664062 C2.53916016 3.51732422 1.62714844 3.47800781 0.6875 3.4375 C-0.24384766 3.39431641 -1.17519531 3.35113281 -2.13476562 3.30664062 C-4.42304454 3.20102775 -6.71142372 3.09892248 -9 3 C-9 2.67 -9 2.34 -9 2 C-6.94921875 1.77213542 -4.8984375 1.54427083 -2.84765625 1.31640625 C-0.98859771 1.18113386 -0.98859771 1.18113386 0 0 Z " fill="#0D1424" transform="translate(79,8)"/>
<path d="M0 0 C2.97 0.495 2.97 0.495 6 1 C6.33 2.32 6.66 3.64 7 5 C4.2540274 6.3729863 2.0410953 6.12412634 -1 6 C-1.99 5.67 -2.98 5.34 -4 5 C-4 4.34 -4 3.68 -4 3 C-2.68 2.34 -1.36 1.68 0 1 C0 0.67 0 0.34 0 0 Z " fill="#EAE5E6" transform="translate(73,140)"/>
<path d="M0 0 C1.32 0.33 2.64 0.66 4 1 C4 1.66 4 2.32 4 3 C4.99 3.33 5.98 3.66 7 4 C5.35 4 3.7 4 2 4 C2.33 4.99 2.66 5.98 3 7 C-0.3 6.67 -3.6 6.34 -7 6 C-6.67 5.01 -6.34 4.02 -6 3 C-5.01 2.67 -4.02 2.34 -3 2 C-2.67 2.66 -2.34 3.32 -2 4 C-1.34 2.68 -0.68 1.36 0 0 Z " fill="#E9E7E4" transform="translate(65,138)"/>
<path d="M0 0 C1.79206547 0.14084796 3.58364917 0.28783701 5.375 0.4375 C6.87160156 0.55931641 6.87160156 0.55931641 8.3984375 0.68359375 C11 1 11 1 13 2 C13 2.66 13 3.32 13 4 C17.62 4 22.24 4 27 4 C27 4.33 27 4.66 27 5 C9.87962569 5.61633348 9.87962569 5.61633348 2 2 C1.34 1.34 0.68 0.68 0 0 Z " fill="#4E5160" transform="translate(70,137)"/>
<path d="M0 0 C0.33 0 0.66 0 1 0 C1.33 1.98 1.66 3.96 2 6 C2.33 6 2.66 6 3 6 C3 7.65 3 9.3 3 11 C3.66 11 4.32 11 5 11 C6.1577506 14.47325181 6.06866652 17.36067448 6 21 C0.57066813 14.7950493 -0.49958979 7.99343664 0 0 Z " fill="#333848" transform="translate(22,66)"/>
<path d="M0 0 C0.66 0.99 1.32 1.98 2 3 C1.67 3.33 1.34 3.66 1 4 C1.99 4.99 2.98 5.98 4 7 C3.34 8.32 2.68 9.64 2 11 C0.68 11 -0.64 11 -2 11 C-2.33 11.99 -2.66 12.98 -3 14 C-2.58846263 9.02906176 -2.20399168 4.55491614 0 0 Z " fill="#2D374B" transform="translate(25,44)"/>
<path d="M0 0 C10.74259681 5.0022779 10.74259681 5.0022779 14 9 C12.63875 8.690625 12.63875 8.690625 11.25 8.375 C7.88972103 7.9872755 6.75924185 8.19588033 4 10 C4.66 8.68 5.32 7.36 6 6 C2.535 4.02 2.535 4.02 -1 2 C-0.67 1.34 -0.34 0.68 0 0 Z " fill="#DEDCDE" transform="translate(107,17)"/>
<path d="M0 0 C5.28 0 10.56 0 16 0 C16 0.66 16 1.32 16 2 C11.74897771 4.12551114 6.32682977 3.43325054 1.9375 2 C1.298125 1.67 0.65875 1.34 0 1 C0 0.67 0 0.34 0 0 Z " fill="#DBDFE8" transform="translate(83,142)"/>
<path d="M0 0 C0.99 0.33 1.98 0.66 3 1 C2.34 1 1.68 1 1 1 C1.33 1.99 1.66 2.98 2 4 C1.01 4 0.02 4 -1 4 C-1.33 5.32 -1.66 6.64 -2 8 C-3.65 8.33 -5.3 8.66 -7 9 C-6.875 6.75 -6.875 6.75 -6 4 C-3.125 1.625 -3.125 1.625 0 0 Z " fill="#182138" transform="translate(45,22)"/>
<path d="M0 0 C-1.33855096 2.67710191 -2.72058088 2.95129094 -5.4375 4.125 C-6.24058594 4.47820312 -7.04367188 4.83140625 -7.87109375 5.1953125 C-10 6 -10 6 -12 6 C-12 5.34 -12 4.68 -12 4 C-12.66 3.67 -13.32 3.34 -14 3 C-12.42274653 2.29866401 -10.83788667 1.614417 -9.25 0.9375 C-7.92742187 0.36322266 -7.92742187 0.36322266 -6.578125 -0.22265625 C-3.84743691 -1.04600008 -2.63098653 -0.9773992 0 0 Z " fill="#BDC4D2" transform="translate(111,138)"/>
<path d="M0 0 C2 1 2 1 2.875 3.25 C3 6 3 6 1.0625 8.8125 C0.381875 9.534375 -0.29875 10.25625 -1 11 C-2.32 9.02 -3.64 7.04 -5 5 C-4.67 4.34 -4.34 3.68 -4 3 C-3.34 3.66 -2.68 4.32 -2 5 C-1.34 3.35 -0.68 1.7 0 0 Z " fill="#182234" transform="translate(53,113)"/>
<path d="M0 0 C1.51953125 1.20703125 1.51953125 1.20703125 3 3 C3.07421875 5.26171875 3.07421875 5.26171875 2.6875 7.6875 C2.50767578 8.89986328 2.50767578 8.89986328 2.32421875 10.13671875 C2.21722656 10.75160156 2.11023438 11.36648437 2 12 C1.34 12 0.68 12 0 12 C-0.66 8.37 -1.32 4.74 -2 1 C-1.01 1.495 -1.01 1.495 0 2 C0 1.34 0 0.68 0 0 Z " fill="#192136" transform="translate(145,53)"/>
<path d="M0 0 C1.97909398 -0.02686553 3.95828971 -0.04633375 5.9375 -0.0625 C7.03964844 -0.07410156 8.14179687 -0.08570313 9.27734375 -0.09765625 C12 0 12 0 13 1 C15.34987262 1.23527773 17.70556039 1.41386417 20.0625 1.5625 C21.35285156 1.64628906 22.64320312 1.73007813 23.97265625 1.81640625 C25.47119141 1.90728516 25.47119141 1.90728516 27 2 C27 2.33 27 2.66 27 3 C8.65957447 3.38297872 8.65957447 3.38297872 0 1 C0 0.67 0 0.34 0 0 Z " fill="#C5C7CC" transform="translate(59,144)"/>
<path d="M0 0 C3.26008643 3.16952847 6.22237877 6.39937989 9 10 C8.67 10.66 8.34 11.32 8 12 C6.125 11.875 6.125 11.875 4 11 C2.875 8.25 2.875 8.25 2 5 C1.34588315 3.32836805 0.68346682 1.65984798 0 0 Z " fill="#1B2233" transform="translate(110,41)"/>
<path d="M0 0 C3.69790046 1.23263349 3.9354846 2.20052451 5.6875 5.5625 C6.12449219 6.38878906 6.56148437 7.21507812 7.01171875 8.06640625 C7.33785156 8.70449219 7.66398438 9.34257813 8 10 C7.01 10 6.02 10 5 10 C5 9.01 5 8.02 5 7 C3.35 7 1.7 7 0 7 C0 4.69 0 2.38 0 0 Z " fill="#DAD8DF" transform="translate(131,37)"/>
<path d="M0 0 C1.28497537 3.85492611 0.4052209 5.40346836 -0.9375 9.1875 C-1.31777344 10.27417969 -1.69804687 11.36085938 -2.08984375 12.48046875 C-2.39019531 13.31191406 -2.69054687 14.14335938 -3 15 C-3.33 14.34 -3.66 13.68 -4 13 C-5.32 13 -6.64 13 -8 13 C-7.67 12.01 -7.34 11.02 -7 10 C-6.35546875 9.86722656 -5.7109375 9.73445313 -5.046875 9.59765625 C-4.37140625 9.40042969 -3.6959375 9.20320313 -3 9 C-1.8624787 6.91965706 -1.8624787 6.91965706 -1.25 4.4375 C-1.00765625 3.61121094 -0.7653125 2.78492187 -0.515625 1.93359375 C-0.34546875 1.29550781 -0.1753125 0.65742187 0 0 Z " fill="#C8CCCE" transform="translate(145,89)"/>
<path d="M0 0 C3.74007011 1.24669004 4.51247157 2.68513508 6.75 5.875 C7.70132813 7.20144531 7.70132813 7.20144531 8.671875 8.5546875 C9.11015625 9.36164063 9.5484375 10.16859375 10 11 C9.67 11.99 9.34 12.98 9 14 C7 11 7 11 5.625 8.4375 C3.91677479 5.87516219 2.8306439 5.07369252 0 4 C0 2.68 0 1.36 0 0 Z " fill="#1A1E2D" transform="translate(120,56)"/>
<path d="M0 0 C0.66 0 1.32 0 2 0 C1 7.42857143 1 7.42857143 0 11 C-0.99 11 -1.98 11 -3 11 C-2.69217504 9.35328588 -2.37860766 7.70764424 -2.0625 6.0625 C-1.88847656 5.14597656 -1.71445312 4.22945312 -1.53515625 3.28515625 C-1 1 -1 1 0 0 Z " fill="#DEE0E4" transform="translate(23,42)"/>
<path d="M0 0 C2 1.625 2 1.625 4 4 C4.25 7.25 4.25 7.25 4 10 C3.34 10 2.68 10 2 10 C-0.17364926 7.18230651 -1.08677021 5.7809319 -0.6875 2.1875 C-0.460625 1.465625 -0.23375 0.74375 0 0 Z " fill="#EBE8E7" transform="translate(128,33)"/>
<path d="M0 0 C2.5 2.0625 2.5 2.0625 5 5 C5.3125 8.8125 5.3125 8.8125 5 12 C2.4375 9.75 2.4375 9.75 0 7 C0.25 4.875 0.25 4.875 1 3 C0.67 2.01 0.34 1.02 0 0 Z " fill="#192439" transform="translate(34,92)"/>
<path d="M0 0 C0.99 0.99 1.98 1.98 3 3 C0.6875 5.5 0.6875 5.5 -2 8 C-2.99 8 -3.98 8 -5 8 C-3.8141763 4.62496331 -2.72426311 2.35277269 0 0 Z " fill="#252E45" transform="translate(23,35)"/>
<path d="M0 0 C1.125 1.6875 1.125 1.6875 2 4 C1.25 6.6875 1.25 6.6875 0 9 C-0.99 9.495 -0.99 9.495 -2 10 C-2.99 9.67 -3.98 9.34 -5 9 C-5 8.34 -5 7.68 -5 7 C-4.360625 6.54625 -3.72125 6.0925 -3.0625 5.625 C-0.7323843 3.78915127 -0.39598702 2.87090587 0 0 Z " fill="#172132" transform="translate(129,112)"/>
<path d="M0 0 C2 0.875 2 0.875 3.25 3.4375 C3.4975 4.241875 3.745 5.04625 4 5.875 C1 5.875 1 5.875 -1.6875 3.375 C-2.450625 2.55 -3.21375 1.725 -4 0.875 C-2 -0.125 -2 -0.125 0 0 Z " fill="#2F354A" transform="translate(62,128.125)"/>
<path d="M0 0 C0.33 0.99 0.66 1.98 1 3 C-0.25 4.5 -0.25 4.5 -2 6 C-3.32 6 -4.64 6 -6 6 C-5.25 3.5625 -5.25 3.5625 -4 1 C-1.875 0.1875 -1.875 0.1875 0 0 Z " fill="#1C2338" transform="translate(124,123)"/>
<path d="M0 0 C1.88391785 3.26545761 2.49287967 6.28111761 3 10 C0.04070881 7.24479785 -2.03681826 4.53372712 -4 1 C-2.68 0.67 -1.36 0.34 0 0 Z " fill="#D1D2D9" transform="translate(115,40)"/>
<path d="M0 0 C4 4.5 4 4.5 4 9 C3.01 9 2.02 9 1 9 C0.67 6.03 0.34 3.06 0 0 Z " fill="#D4D7DA" transform="translate(28,89)"/>
<path d="M0 0 C1.125 3.75 1.125 3.75 0 6 C0.66 6 1.32 6 2 6 C1.34 7.32 0.68 8.64 0 10 C0 9.34 0 8.68 0 8 C-0.99 7.67 -1.98 7.34 -3 7 C-2.625 4.0625 -2.625 4.0625 -2 1 C-1.34 0.67 -0.68 0.34 0 0 Z " fill="#18223B" transform="translate(19,36)"/>
<path d="M0 0 C1.98 1.65 3.96 3.3 6 5 C5.67 5.99 5.34 6.98 5 8 C2.69 6.35 0.38 4.7 -2 3 C-1.34 2.67 -0.68 2.34 0 2 C0 1.34 0 0.68 0 0 Z " fill="#D6D5DD" transform="translate(36,128)"/>
<path d="M0 0 C3.36720387 1.39332574 4.9859524 2.9789286 7 6 C6.34 6.66 5.68 7.32 5 8 C0 2.25 0 2.25 0 0 Z " fill="#D0D0D4" transform="translate(122,27)"/>
<path d="M0 0 C0.66 0.33 1.32 0.66 2 1 C2.625 3.5625 2.625 3.5625 3 6 C1.35 6 -0.3 6 -2 6 C-2.66 4.68 -3.32 3.36 -4 2 C-3.01 2 -2.02 2 -1 2 C-0.67 1.34 -0.34 0.68 0 0 Z " fill="#182239" transform="translate(59,123)"/>
<path d="M0 0 C1.32 1.65 2.64 3.3 4 5 C3.01 6.485 3.01 6.485 2 8 C1.34 8 0.68 8 0 8 C-0.66 6.02 -1.32 4.04 -2 2 C-1.34 1.34 -0.68 0.68 0 0 Z " fill="#2A2E41" transform="translate(78,90)"/>
<path d="M0 0 C0.99 0.33 1.98 0.66 3 1 C1.90554162 1.86657116 0.79902219 2.71792724 -0.3125 3.5625 C-0.92738281 4.03816406 -1.54226562 4.51382813 -2.17578125 5.00390625 C-2.77777344 5.33261719 -3.37976563 5.66132813 -4 6 C-4.99 5.67 -5.98 5.34 -7 5 C-5.90554162 4.13342884 -4.79902219 3.28207276 -3.6875 2.4375 C-3.07261719 1.96183594 -2.45773438 1.48617187 -1.82421875 0.99609375 C-1.22222656 0.66738281 -0.62023437 0.33867187 0 0 Z " fill="#C8D0E1" transform="translate(117,132)"/>
<path d="M0 0 C0.99 1.32 1.98 2.64 3 4 C2.360625 4.12375 1.72125 4.2475 1.0625 4.375 C0.0415625 4.684375 0.0415625 4.684375 -1 5 C-1.33 5.66 -1.66 6.32 -2 7 C-2 6.34 -2 5.68 -2 5 C-2.66 5 -3.32 5 -4 5 C-3.67 4.01 -3.34 3.02 -3 2 C-2.01 2 -1.02 2 0 2 C0 1.34 0 0.68 0 0 Z " fill="#DCD9D9" transform="translate(36,101)"/>
<path d="M0 0 C0.66 0.33 1.32 0.66 2 1 C0.25 6.75 0.25 6.75 -2 9 C-2.6875 6.1875 -2.6875 6.1875 -3 3 C-1.5625 1.125 -1.5625 1.125 0 0 Z " fill="#162030" transform="translate(17,45)"/>
<path d="M0 0 C2.64 0 5.28 0 8 0 C8 1.32 8 2.64 8 4 C4.31245243 3.50168276 2.39509338 2.89932357 0 0 Z " fill="#D6D6D9" transform="translate(91,21)"/>
<path d="M0 0 C1.67542976 0.28604898 3.34385343 0.61781233 5 1 C3 3 3 3 0.1796875 3.1953125 C-0.91085938 3.17210937 -2.00140625 3.14890625 -3.125 3.125 C-4.22070312 3.10695313 -5.31640625 3.08890625 -6.4453125 3.0703125 C-7.28835937 3.04710937 -8.13140625 3.02390625 -9 3 C-9 2.67 -9 2.34 -9 2 C-6.94921875 1.77213542 -4.8984375 1.54427083 -2.84765625 1.31640625 C-0.98859771 1.18113386 -0.98859771 1.18113386 0 0 Z " fill="#151E2D" transform="translate(79,8)"/>
<path d="M0 0 C1.98 0.66 3.96 1.32 6 2 C3.6875 4.0625 3.6875 4.0625 1 6 C0.01 5.67 -0.98 5.34 -2 5 C-1.34 3.35 -0.68 1.7 0 0 Z " fill="#303548" transform="translate(110,131)"/>
<path d="M0 0 C1.17539996 0.92652701 2.34010577 1.86663387 3.5 2.8125 C4.1496875 3.33457031 4.799375 3.85664062 5.46875 4.39453125 C7 6 7 6 7 9 C3.46352496 7.32482761 2.2088437 6.50719183 0.6875 2.8125 C0.460625 1.884375 0.23375 0.95625 0 0 Z " fill="#131728" transform="translate(27,124)"/>
<path d="M0 0 C1.37562854 1.28965176 2.70766393 2.62689293 4 4 C4 4.66 4 5.32 4 6 C3.01 6.33 2.02 6.66 1 7 C0.34 6.34 -0.32 5.68 -1 5 C-0.625 2.375 -0.625 2.375 0 0 Z " fill="#182135" transform="translate(45,108)"/>
<path d="M0 0 C1.32 0.66 2.64 1.32 4 2 C2.625 4 2.625 4 1 6 C0.34 6 -0.32 6 -1 6 C-1.33 6.66 -1.66 7.32 -2 8 C-1.125 2.25 -1.125 2.25 0 0 Z " fill="#182335" transform="translate(144,97)"/>
<path d="M0 0 C0.99 0.33 1.98 0.66 3 1 C2.75 2.875 2.75 2.875 2 5 C-0.0625 6.25 -0.0625 6.25 -2 7 C-1.34 4.69 -0.68 2.38 0 0 Z " fill="#161E33" transform="translate(34,22)"/>
<path d="M0 0 C2.31 0.33 4.62 0.66 7 1 C7 1.66 7 2.32 7 3 C5.35 3.33 3.7 3.66 2 4 C1.34 2.68 0.68 1.36 0 0 Z M0 4 C2 5 2 5 2 5 Z " fill="#1A2436" transform="translate(47,141)"/>
<path d="M0 0 C0.33 0 0.66 0 1 0 C1.33 2.97 1.66 5.94 2 9 C1.34 9 0.68 9 0 9 C-1.36623674 6.26752652 -1.128426 4.01801098 -1 1 C-0.67 0.67 -0.34 0.34 0 0 Z " fill="#EAE6EB" transform="translate(13,74)"/>
<path d="M0 0 C0.99 0 1.98 0 3 0 C2.67 1.98 2.34 3.96 2 6 C1.01 6 0.02 6 -1 6 C-0.67 4.02 -0.34 2.04 0 0 Z " fill="#D4D5DD" transform="translate(91,75)"/>
<path d="M0 0 C1.32 0.66 2.64 1.32 4 2 C3.34 2 2.68 2 2 2 C2 3.32 2 4.64 2 6 C0.68 6.33 -0.64 6.66 -2 7 C-1.34 4.69 -0.68 2.38 0 0 Z " fill="#182535" transform="translate(27,42)"/>
<path d="M0 0 C4.455 1.98 4.455 1.98 9 4 C9 4.33 9 4.66 9 5 C2.47692308 4.38461538 2.47692308 4.38461538 0.0625 2.4375 C-0.288125 1.963125 -0.63875 1.48875 -1 1 C-0.67 0.67 -0.34 0.34 0 0 Z " fill="#D3D4DC" transform="translate(107,17)"/>
<path d="M0 0 C2 1 2 1 3.25 3.3125 C4 6 4 6 3.125 8.3125 C2.568125 9.1478125 2.568125 9.1478125 2 10 C0.39644899 6.49223216 -0.22036864 3.85645121 0 0 Z " fill="#E8E5E8" transform="translate(14,92)"/>
<path d="M0 0 C0.33 0.66 0.66 1.32 1 2 C1.99 1.67 2.98 1.34 4 1 C3.40138258 3.35171131 2.73075648 5.6859378 2 8 C1.01 8.495 1.01 8.495 0 9 C0.33 7.35 0.66 5.7 1 4 C0.34 4 -0.32 4 -1 4 C-0.67 2.68 -0.34 1.36 0 0 Z " fill="#B4B4C1" transform="translate(93,71)"/>
<path d="M0 0 C1.32 0 2.64 0 4 0 C3.42655063 2.86724686 3.1385485 3.8614515 1 6 C-0.0625 4.125 -0.0625 4.125 -1 2 C-0.67 1.34 -0.34 0.68 0 0 Z " fill="#AFB8C9" transform="translate(99,59)"/>
<path d="M0 0 C1.32 1.32 2.64 2.64 4 4 C3.34 5.32 2.68 6.64 2 8 C1.34 7.67 0.68 7.34 0 7 C0 4.69 0 2.38 0 0 Z " fill="#182236" transform="translate(138,39)"/>
<path d="M0 0 C2.97 0.495 2.97 0.495 6 1 C6 1.99 6 2.98 6 4 C5.01 4.33 4.02 4.66 3 5 C2.01 3.35 1.02 1.7 0 0 Z " fill="#D9D9DC" transform="translate(26,121)"/>
<path d="M0 0 C1.25541557 3.76624671 0.37061958 5.37188934 -1 9 C-1.66 8.67 -2.32 8.34 -3 8 C-2.45276317 4.62537285 -1.9451 2.91765 0 0 Z " fill="#2B3240" transform="translate(136,101)"/>
<path d="M0 0 C0.99 0.33 1.98 0.66 3 1 C2.34 2.65 1.68 4.3 1 6 C0.01 6 -0.98 6 -2 6 C-2.33 4.68 -2.66 3.36 -3 2 C-2.34 2 -1.68 2 -1 2 C-0.67 1.34 -0.34 0.68 0 0 Z " fill="#B0B2BE" transform="translate(79,102)"/>
<path d="M0 0 C0.33 0.66 0.66 1.32 1 2 C3.02463255 2.65213292 3.02463255 2.65213292 5 3 C4.67 4.65 4.34 6.3 4 8 C3.896875 7.360625 3.79375 6.72125 3.6875 6.0625 C3.460625 5.381875 3.23375 4.70125 3 4 C2.01 3.67 1.02 3.34 0 3 C0 2.01 0 1.02 0 0 Z " fill="#E6E9EA" transform="translate(73,94)"/>
<path d="M0 0 C1.65 0 3.3 0 5 0 C5 1.65 5 3.3 5 5 C3.68 4.67 2.36 4.34 1 4 C0.67 2.68 0.34 1.36 0 0 Z " fill="#E2E6EF" transform="translate(56,60)"/>
<path d="M0 0 C0.66 1.32 1.32 2.64 2 4 C1.34 4 0.68 4 0 4 C-0.33 4.99 -0.66 5.98 -1 7 C-3 4 -3 4 -3 2 C-2.01 1.34 -1.02 0.68 0 0 Z " fill="#EDEAE8" transform="translate(115,35)"/>
<path d="M0 0 C5.75 0.75 5.75 0.75 8 3 C4.23375329 4.25541557 2.62811066 3.37061958 -1 2 C-0.67 1.34 -0.34 0.68 0 0 Z " fill="#D3D6DE" transform="translate(98,14)"/>
</svg>
